<svg xmlns="http://www.w3.org/2000/svg" version="1.1" xmlns:xlink="http://www.w3.org/1999/xlink" xmlns:svgjs="http://svgjs.dev/svgjs" width="1000" height="623" viewBox="0 0 1000 623"><g transform="matrix(1,0,0,1,-0.6060606060606233,0.2522267206477409)"><svg viewBox="0 0 396 247" data-background-color="#ffffff" preserveAspectRatio="xMidYMid meet" height="623" width="1000" xmlns="http://www.w3.org/2000/svg" xmlns:xlink="http://www.w3.org/1999/xlink"><g id="tight-bounds" transform="matrix(1,0,0,1,0.2400000000000091,-0.09999999999999432)"><svg viewBox="0 0 395.52 247.2" height="247.2" width="395.52"><g><svg></svg></g><g><svg viewBox="0 0 395.52 247.2" height="247.2" width="395.52"><mask id="2e54231c-a676-461b-b325-cb499c71d561"><rect width="640" height="400" fill="white"></rect><g transform="matrix(1,0,0,1,92.288,110.49438287752675)"><svg viewBox="0 0 210.944 26.211234244946493" height="26.211234244946493" width="210.944"><g><svg viewBox="0 0 210.944 26.211234244946493" height="26.211234244946493" width="210.944"><g><svg viewBox="0 0 210.944 26.211234244946493" height="26.211234244946493" width="210.944"><g><svg viewBox="0 0 210.944 26.211234244946493" height="26.211234244946493" width="210.944"><g id="SvgjsG3314"><svg viewBox="0 0 210.944 26.211234244946493" height="26.211234244946493" width="210.944" id="SvgjsSvg3313"><g><svg viewBox="0 0 210.944 26.211234244946493" height="26.211234244946493" width="210.944"><g transform="matrix(1,0,0,1,0,0)"><svg width="210.944" viewBox="-2.049999952316284 -39.29999923706055 337.3699951171875 42.79999923706055" height="26.211234244946493" data-palette-color="#010c80"><path d="M6.05-30.5Q5.85-31.1 5.43-31.45 5-31.8 4.5-31.8L4.5-31.8Q4.35-31.8 3.95-31.7L3.95-31.7Q3.3-31.5 3.15-31.1L3.15-31.1 0.95-32.65Q1.55-33.8 3.1-34.35L3.1-34.35Q3.9-34.65 4.7-34.65L4.7-34.65Q6.1-34.65 7.18-33.83 8.25-33 8.8-31.45L8.8-31.45 17.9-6.1 18.35-4.2 18.8-6.15 28.65-34.25 31.65-34.25 19.8 0 16.9 0 6.05-30.5ZM40.2-4.2Q40.2-3.5 40.67-3.03 41.15-2.55 41.8-2.55L41.8-2.55Q42.8-2.55 43.25-3.4L43.25-3.4 45.45-1.75Q45.05-0.9 44.05-0.33 43.05 0.25 41.8 0.25L41.8 0.25Q39.8 0.25 38.5-1 37.2-2.25 37.2-4.25L37.2-4.25 37.2-25 40.2-25 40.2-4.2ZM38.55-28.25Q37.7-28.25 37.07-28.88 36.45-29.5 36.45-30.35L36.45-30.35Q36.45-31.25 37.07-31.88 37.7-32.5 38.55-32.5L38.55-32.5Q39.45-32.5 40.07-31.88 40.7-31.25 40.7-30.35L40.7-30.35Q40.7-29.5 40.07-28.88 39.45-28.25 38.55-28.25L38.55-28.25ZM48.8-20.75Q48.45-21.6 47.77-22.38 47.1-23.15 46.35-23.55L46.35-23.55 48-25.8Q50.55-24.25 51.95-20.4L51.95-20.4 58.25-3.85 66.05-24.95 69.05-24.95 59.75 0 56.65 0 48.8-20.75ZM83.79 0.5Q80.04 0.5 77.44-1.05 74.84-2.6 73.52-5.33 72.19-8.05 72.19-11.5L72.19-11.5Q72.19-14.9 73.47-18.1 74.74-21.3 77.32-23.35 79.89-25.4 83.59-25.4L83.59-25.4Q86.04-25.4 88.14-24.45 90.24-23.5 91.47-21.75 92.69-20 92.69-17.7L92.69-17.7Q92.69-14 89.54-11.98 86.39-9.95 80.84-10L80.84-10 75.34-10.05Q75.79-6.2 77.92-4.2 80.04-2.2 83.79-2.2L83.79-2.2Q86.04-2.2 87.97-2.83 89.89-3.45 91.69-4.75L91.69-4.75 93.19-2.75Q91.29-1.25 88.87-0.38 86.44 0.5 83.79 0.5L83.79 0.5ZM81.49-12.6Q89.69-12.6 89.69-17.75L89.69-17.75Q89.69-20.25 87.97-21.48 86.24-22.7 83.74-22.7L83.74-22.7Q80.94-22.7 79.02-21.1 77.09-19.5 76.14-17.15 75.19-14.8 75.19-12.6L75.19-12.6 81.49-12.6ZM121.74-3.4L123.94-1.75Q123.54-0.9 122.54-0.33 121.54 0.25 120.29 0.25L120.29 0.25Q118.29 0.25 116.99-1 115.69-2.25 115.69-4.25L115.69-4.25 115.69-16.8Q115.69-22.8 110.29-22.8L110.29-22.8Q107.74-22.8 105.94-21.53 104.14-20.25 102.24-17.7L102.24-17.7 102.24 0 99.24 0 99.24-17.55Q99.24-21.5 97.14-23.35L97.14-23.35 99.14-25.35Q100.04-24.8 100.87-23.65 101.69-22.5 102.04-21.15L102.04-21.15Q103.74-23.45 105.82-24.48 107.89-25.5 110.54-25.5L110.54-25.5Q114.19-25.5 116.34-23.63 118.49-21.75 118.69-18.1L118.69-18.1 118.69-4.2Q118.69-3.5 119.17-3.03 119.64-2.55 120.29-2.55L120.29-2.55Q121.29-2.55 121.74-3.4L121.74-3.4ZM128.59-36.3L131.59-36.3 131.59-20.75Q132.79-23.05 134.91-24.33 137.04-25.6 139.59-25.6L139.59-25.6Q142.94-25.6 145.11-23.45 147.29-21.3 147.29-17.95L147.29-17.95Q147.29-15.25 145.91-13.4 144.54-11.55 142.59-10.75L142.59-10.75 147.09-3.2Q147.54-2.35 148.39-2.35L148.39-2.35Q149.04-2.35 149.39-2.85L149.39-2.85 151.54-1.15Q150.24 0.45 148.39 0.45L148.39 0.45Q147.19 0.45 146.11-0.1 145.04-0.65 144.44-1.7L144.44-1.7 139.69-9.95 131.59-9.95 131.59 0 128.59 0 128.59-36.3ZM137.34-12.75Q139.59-12.75 141.14-13.4L141.14-13.4Q144.44-14.8 144.44-18.05L144.44-18.05Q144.44-20.15 143.06-21.48 141.69-22.8 139.34-22.8L139.34-22.8Q136.79-22.8 134.99-21.15 133.19-19.5 132.24-16.35L132.24-16.35Q131.74-14.7 131.69-12.75L131.69-12.75 137.34-12.75ZM178.44-3.1L180.59-1.4Q179.84-0.35 178.91 0.08 177.99 0.5 176.79 0.5L176.79 0.5Q175.04 0.5 173.71-0.7 172.39-1.9 172.39-3.6L172.39-3.6Q168.94 0.4 164.04 0.4L164.04 0.4Q160.29 0.4 158.19-1.43 156.09-3.25 155.89-6.95L155.89-6.95 155.89-17.65Q155.89-21.6 153.79-23.45L153.79-23.45 155.79-25.45Q156.99-24.7 157.94-23.1 158.89-21.5 158.89-19.65L158.89-19.65 158.89-8.25Q158.89-5.4 160.16-3.85 161.44-2.3 164.34-2.3L164.34-2.3Q167.09-2.3 169.06-3.5 171.04-4.7 172.34-7.3L172.34-7.3 172.39-25 175.39-25 175.34-4.3Q175.34-3.3 175.81-2.78 176.29-2.25 176.99-2.25L176.99-2.25Q177.89-2.25 178.44-3.1L178.44-3.1ZM220.88-3.4L223.08-1.75Q222.68-0.9 221.68-0.33 220.68 0.25 219.43 0.25L219.43 0.25Q217.43 0.25 216.13-1 214.83-2.25 214.83-4.25L214.83-4.25 214.83-17.5Q214.68-20.2 213.48-21.48 212.28-22.75 209.98-22.75L209.98-22.75Q205.48-22.75 202.88-17.8L202.88-17.8 202.88 0 199.88 0 199.88-16.8Q199.88-19.6 198.68-21.18 197.48-22.75 195.08-22.75L195.08-22.75Q192.78-22.75 190.81-21.35 188.83-19.95 187.98-17.9L187.98-17.9 187.98 0 184.98 0 184.98-17.5Q184.98-21.45 182.88-23.3L182.88-23.3 184.88-25.3Q185.73-24.7 186.53-23.65 187.33-22.6 187.73-21.3L187.73-21.3Q189.08-23.3 191.01-24.38 192.93-25.45 195.33-25.45L195.33-25.45Q197.78-25.45 199.56-24.3 201.33-23.15 202.23-20.9L202.23-20.9Q203.63-23.1 205.61-24.28 207.58-25.45 210.03-25.45L210.03-25.45Q213.58-25.45 215.71-23.28 217.83-21.1 217.83-17.55L217.83-17.55 217.83-4.2Q217.83-3.5 218.31-3.03 218.78-2.55 219.43-2.55L219.43-2.55Q220.43-2.55 220.88-3.4L220.88-3.4ZM235.73 0.5Q232.28 0.5 229.83-1.25 227.38-3 226.13-5.9 224.88-8.8 224.88-12.3L224.88-12.3Q224.88-16.15 226.38-19.13 227.88-22.1 230.68-23.75 233.48-25.4 237.23-25.4L237.23-25.4Q238.38-25.4 240.13-25.28 241.88-25.15 243.23-24.95L243.23-24.95 246.23-24.95 246.23-4.3Q246.23-3.3 246.71-2.78 247.18-2.25 247.88-2.25L247.88-2.25Q248.78-2.25 249.33-3.1L249.33-3.1 251.48-1.4Q250.73-0.35 249.81 0.08 248.88 0.5 247.68 0.5L247.68 0.5Q245.93 0.5 244.61-0.7 243.28-1.9 243.28-3.6L243.28-3.6Q242.08-1.6 240.13-0.55 238.18 0.5 235.73 0.5L235.73 0.5ZM235.78-2.2Q238.03-2.2 239.83-3.3 241.63-4.4 242.53-6.2L242.53-6.2Q243.23-7.65 243.23-9.4L243.23-9.4 243.23-22.5 239.93-22.6 237.03-22.7Q232.48-22.7 230.18-19.85 227.88-17 227.88-12.4L227.88-12.4Q227.88-8.15 229.91-5.18 231.93-2.2 235.78-2.2L235.78-2.2ZM265.78-25.5Q267.28-25.5 268.78-25.05L268.78-25.05 268.78-22.25Q267.33-22.6 265.88-22.6L265.88-22.6Q263.33-22.6 261.73-21.35L261.73-21.35Q260.13-20.1 258.88-17.8L258.88-17.8 258.88 0 255.88 0 255.88-17.5Q255.88-21.45 253.78-23.3L253.78-23.3 255.78-25.3Q256.68-24.75 257.48-23.65 258.28-22.55 258.63-21.2L258.63-21.2Q260.03-23.5 261.43-24.35L261.43-24.35Q263.18-25.5 265.78-25.5L265.78-25.5ZM275.38-34.2L284.48-20.25 293.53-34.2 297.08-34.2 286.18-17.6 294.58-3.25Q295.03-2.55 295.88-2.55L295.88-2.55Q296.63-2.55 297.08-3.1L297.08-3.1 299.53-1.4Q298.88-0.55 297.85-0.1 296.83 0.35 295.68 0.35L295.68 0.35Q294.13 0.35 293.15-0.5 292.18-1.35 291.13-3.25L291.13-3.25 284.38-15.45 275.58 0 272.03 0 282.58-18.15 271.93-34.2 275.38-34.2ZM306.02-31.4Q305.02-31.4 304.55-31.28 304.07-31.15 303.72-30.8L303.72-30.8Q303.42-30.5 303.2-29.98 302.97-29.45 302.97-29L302.97-29 300.22-29.05Q300.32-31.4 301.72-32.8L301.72-32.8Q302.47-33.5 303.5-33.83 304.52-34.15 306.07-34.2L306.07-34.2 317.22-34.2Q319.42-34.2 321.22-33.35L321.22-33.35Q323.67-32.15 325.15-29.58 326.62-27 326.62-23.85L326.62-23.85Q326.62-21.25 325.6-19.13 324.57-17 322.75-15.75 320.92-14.5 318.62-14.5L318.62-14.5 317.37-14.45 318.02-14.25Q318.42-14.15 319.02-13.7 319.62-13.25 319.92-12.85L319.92-12.85 327.17-3.05Q327.77-2.25 328.47-2.25L328.47-2.25Q329.42-2.25 329.97-3.15L329.97-3.15 332.32-1.45Q331.72-0.55 330.7-0.03 329.67 0.5 328.52 0.5L328.52 0.5Q326.27 0.5 324.82-1.45L324.82-1.45 318.87-9.65Q317.47-11.55 316.1-12.55 314.72-13.55 312.12-13.8L312.12-13.8 312.12-16.6 316.47-16.6Q319.77-16.6 321.7-18.55 323.62-20.5 323.62-23.85L323.62-23.85Q323.62-27.2 321.77-29.3 319.92-31.4 317.02-31.4L317.02-31.4 309.02-31.4 309.02 0 306.02 0 306.02-31.4Z" opacity="1" transform="matrix(1,0,0,1,0,0)" fill="black" class="wordmark-text-0" id="SvgjsPath3312" stroke-width="5" stroke="black" stroke-linejoin="round"></path></svg></g></svg></g></svg></g></svg></g></svg></g></svg></g></svg></g></mask><g transform="matrix(1,0,0,1,92.288,110.49438287752675)"><svg viewBox="0 0 210.944 26.211234244946493" height="26.211234244946493" width="210.944"><g><svg viewBox="0 0 210.944 26.211234244946493" height="26.211234244946493" width="210.944"><g><svg viewBox="0 0 210.944 26.211234244946493" height="26.211234244946493" width="210.944"><g><svg viewBox="0 0 210.944 26.211234244946493" height="26.211234244946493" width="210.944"><g id="textblocktransform"><svg viewBox="0 0 210.944 26.211234244946493" height="26.211234244946493" width="210.944" id="textblock"><g><svg viewBox="0 0 210.944 26.211234244946493" height="26.211234244946493" width="210.944"><g transform="matrix(1,0,0,1,0,0)"><svg width="210.944" viewBox="-2.049999952316284 -39.29999923706055 337.3699951171875 42.79999923706055" height="26.211234244946493" data-palette-color="#010c80"><path d="M6.05-30.5Q5.85-31.1 5.43-31.45 5-31.8 4.5-31.8L4.5-31.8Q4.35-31.8 3.95-31.7L3.95-31.7Q3.3-31.5 3.15-31.1L3.15-31.1 0.95-32.65Q1.55-33.8 3.1-34.35L3.1-34.35Q3.9-34.65 4.7-34.65L4.7-34.65Q6.1-34.65 7.18-33.83 8.25-33 8.8-31.45L8.8-31.45 17.9-6.1 18.35-4.2 18.8-6.15 28.65-34.25 31.65-34.25 19.8 0 16.9 0 6.05-30.5ZM40.2-4.2Q40.2-3.5 40.67-3.03 41.15-2.55 41.8-2.55L41.8-2.55Q42.8-2.55 43.25-3.4L43.25-3.4 45.45-1.75Q45.05-0.9 44.05-0.33 43.05 0.25 41.8 0.25L41.8 0.25Q39.8 0.25 38.5-1 37.2-2.25 37.2-4.25L37.2-4.25 37.2-25 40.2-25 40.2-4.2ZM38.55-28.25Q37.7-28.25 37.07-28.88 36.45-29.5 36.45-30.35L36.45-30.35Q36.45-31.25 37.07-31.88 37.7-32.5 38.55-32.5L38.55-32.5Q39.45-32.5 40.07-31.88 40.7-31.25 40.7-30.35L40.7-30.35Q40.7-29.5 40.07-28.88 39.45-28.25 38.55-28.25L38.55-28.25ZM48.8-20.75Q48.45-21.6 47.77-22.38 47.1-23.15 46.35-23.55L46.35-23.55 48-25.8Q50.55-24.25 51.95-20.4L51.95-20.4 58.25-3.85 66.05-24.95 69.05-24.95 59.75 0 56.65 0 48.8-20.75ZM83.79 0.5Q80.04 0.5 77.44-1.05 74.84-2.6 73.52-5.33 72.19-8.05 72.19-11.5L72.19-11.5Q72.19-14.9 73.47-18.1 74.74-21.3 77.32-23.35 79.89-25.4 83.59-25.4L83.59-25.4Q86.04-25.4 88.14-24.45 90.24-23.5 91.47-21.75 92.69-20 92.69-17.7L92.69-17.7Q92.69-14 89.54-11.98 86.39-9.95 80.84-10L80.84-10 75.34-10.05Q75.79-6.2 77.92-4.2 80.04-2.2 83.79-2.2L83.79-2.2Q86.04-2.2 87.97-2.83 89.89-3.45 91.69-4.75L91.69-4.75 93.19-2.75Q91.29-1.25 88.87-0.38 86.44 0.5 83.79 0.5L83.79 0.5ZM81.49-12.6Q89.69-12.6 89.69-17.75L89.69-17.75Q89.69-20.25 87.97-21.48 86.24-22.7 83.74-22.7L83.74-22.7Q80.94-22.7 79.02-21.1 77.09-19.5 76.14-17.15 75.19-14.8 75.19-12.6L75.19-12.6 81.49-12.6ZM121.74-3.4L123.94-1.75Q123.54-0.9 122.54-0.33 121.54 0.25 120.29 0.25L120.29 0.25Q118.29 0.25 116.99-1 115.69-2.25 115.69-4.25L115.69-4.25 115.69-16.8Q115.69-22.8 110.29-22.8L110.29-22.8Q107.74-22.8 105.94-21.53 104.14-20.25 102.24-17.7L102.24-17.7 102.24 0 99.24 0 99.24-17.55Q99.24-21.5 97.14-23.35L97.14-23.35 99.14-25.35Q100.04-24.8 100.87-23.65 101.69-22.5 102.04-21.15L102.04-21.15Q103.74-23.45 105.82-24.48 107.89-25.5 110.54-25.5L110.54-25.5Q114.19-25.5 116.34-23.63 118.49-21.75 118.69-18.1L118.69-18.1 118.69-4.2Q118.69-3.5 119.17-3.03 119.64-2.55 120.29-2.55L120.29-2.55Q121.29-2.55 121.74-3.4L121.74-3.4ZM128.59-36.3L131.59-36.3 131.59-20.75Q132.79-23.05 134.91-24.33 137.04-25.6 139.59-25.6L139.59-25.6Q142.94-25.6 145.11-23.45 147.29-21.3 147.29-17.95L147.29-17.95Q147.29-15.25 145.91-13.4 144.54-11.55 142.59-10.75L142.59-10.75 147.09-3.2Q147.54-2.35 148.39-2.35L148.39-2.35Q149.04-2.35 149.39-2.85L149.39-2.85 151.54-1.15Q150.24 0.45 148.39 0.45L148.39 0.45Q147.19 0.45 146.11-0.1 145.04-0.65 144.44-1.7L144.44-1.7 139.69-9.95 131.59-9.95 131.59 0 128.59 0 128.59-36.3ZM137.34-12.75Q139.59-12.75 141.14-13.4L141.14-13.4Q144.44-14.8 144.44-18.05L144.44-18.05Q144.44-20.15 143.06-21.48 141.69-22.8 139.34-22.8L139.34-22.8Q136.79-22.8 134.99-21.15 133.19-19.5 132.24-16.35L132.24-16.35Q131.74-14.7 131.69-12.75L131.69-12.75 137.34-12.75ZM178.44-3.1L180.59-1.4Q179.84-0.35 178.91 0.08 177.99 0.5 176.79 0.5L176.79 0.5Q175.04 0.5 173.71-0.7 172.39-1.9 172.39-3.6L172.39-3.6Q168.94 0.4 164.04 0.4L164.04 0.4Q160.29 0.4 158.19-1.43 156.09-3.25 155.89-6.95L155.89-6.95 155.89-17.65Q155.89-21.6 153.79-23.45L153.79-23.45 155.79-25.45Q156.99-24.7 157.94-23.1 158.89-21.5 158.89-19.65L158.89-19.65 158.89-8.25Q158.89-5.4 160.16-3.85 161.44-2.3 164.34-2.3L164.34-2.3Q167.09-2.3 169.06-3.5 171.04-4.7 172.34-7.3L172.34-7.3 172.39-25 175.39-25 175.34-4.3Q175.34-3.3 175.81-2.78 176.29-2.25 176.99-2.25L176.99-2.25Q177.89-2.25 178.44-3.1L178.44-3.1ZM220.88-3.4L223.08-1.75Q222.68-0.9 221.68-0.33 220.68 0.25 219.43 0.25L219.43 0.25Q217.43 0.25 216.13-1 214.83-2.25 214.83-4.25L214.83-4.25 214.83-17.5Q214.68-20.2 213.48-21.48 212.28-22.75 209.98-22.75L209.98-22.75Q205.48-22.75 202.88-17.8L202.88-17.8 202.88 0 199.88 0 199.88-16.8Q199.88-19.6 198.68-21.18 197.48-22.75 195.08-22.75L195.08-22.75Q192.78-22.75 190.81-21.35 188.83-19.95 187.98-17.9L187.98-17.9 187.98 0 184.98 0 184.98-17.5Q184.98-21.45 182.88-23.3L182.88-23.3 184.88-25.3Q185.73-24.7 186.53-23.65 187.33-22.6 187.73-21.3L187.73-21.3Q189.08-23.3 191.01-24.38 192.93-25.45 195.33-25.45L195.33-25.45Q197.78-25.45 199.56-24.3 201.33-23.15 202.23-20.9L202.23-20.9Q203.63-23.1 205.61-24.28 207.58-25.45 210.03-25.45L210.03-25.45Q213.58-25.45 215.71-23.28 217.83-21.1 217.83-17.55L217.83-17.55 217.83-4.2Q217.83-3.5 218.31-3.03 218.78-2.55 219.43-2.55L219.43-2.55Q220.43-2.55 220.88-3.4L220.88-3.4ZM235.73 0.5Q232.28 0.5 229.83-1.25 227.38-3 226.13-5.9 224.88-8.8 224.88-12.3L224.88-12.3Q224.88-16.15 226.38-19.13 227.88-22.1 230.68-23.75 233.48-25.4 237.23-25.4L237.23-25.4Q238.38-25.4 240.13-25.28 241.88-25.15 243.23-24.95L243.23-24.95 246.23-24.95 246.23-4.3Q246.23-3.3 246.71-2.78 247.18-2.25 247.88-2.25L247.88-2.25Q248.78-2.25 249.33-3.1L249.33-3.1 251.48-1.4Q250.73-0.35 249.81 0.08 248.88 0.5 247.68 0.5L247.68 0.5Q245.93 0.5 244.61-0.7 243.28-1.9 243.28-3.6L243.28-3.6Q242.08-1.6 240.13-0.55 238.18 0.5 235.73 0.5L235.73 0.5ZM235.78-2.2Q238.03-2.2 239.83-3.3 241.63-4.4 242.53-6.2L242.53-6.2Q243.23-7.65 243.23-9.4L243.23-9.4 243.23-22.5 239.93-22.6 237.03-22.7Q232.48-22.7 230.18-19.85 227.88-17 227.88-12.4L227.88-12.4Q227.88-8.15 229.91-5.18 231.93-2.2 235.78-2.2L235.78-2.2ZM265.78-25.5Q267.28-25.5 268.78-25.05L268.78-25.05 268.78-22.25Q267.33-22.6 265.88-22.6L265.88-22.6Q263.33-22.6 261.73-21.35L261.73-21.35Q260.13-20.1 258.88-17.8L258.88-17.8 258.88 0 255.88 0 255.88-17.5Q255.88-21.45 253.78-23.3L253.78-23.3 255.78-25.3Q256.68-24.75 257.48-23.65 258.28-22.55 258.63-21.2L258.63-21.2Q260.03-23.5 261.43-24.35L261.43-24.35Q263.18-25.5 265.78-25.5L265.78-25.5ZM275.38-34.2L284.48-20.25 293.53-34.2 297.08-34.2 286.18-17.6 294.58-3.25Q295.03-2.55 295.88-2.55L295.88-2.55Q296.63-2.55 297.08-3.1L297.08-3.1 299.53-1.4Q298.88-0.55 297.85-0.1 296.83 0.35 295.68 0.35L295.68 0.35Q294.13 0.35 293.15-0.5 292.18-1.35 291.13-3.25L291.13-3.25 284.38-15.45 275.58 0 272.03 0 282.58-18.15 271.93-34.2 275.38-34.2ZM306.02-31.4Q305.02-31.4 304.55-31.28 304.07-31.15 303.72-30.8L303.72-30.8Q303.42-30.5 303.2-29.98 302.97-29.45 302.97-29L302.97-29 300.22-29.05Q300.32-31.4 301.72-32.8L301.72-32.8Q302.47-33.5 303.5-33.83 304.52-34.15 306.07-34.2L306.07-34.2 317.22-34.2Q319.42-34.2 321.22-33.35L321.22-33.35Q323.67-32.15 325.15-29.58 326.62-27 326.62-23.85L326.62-23.85Q326.62-21.25 325.6-19.13 324.57-17 322.75-15.75 320.92-14.5 318.62-14.5L318.62-14.5 317.37-14.45 318.02-14.25Q318.42-14.15 319.02-13.7 319.62-13.25 319.92-12.85L319.92-12.85 327.17-3.05Q327.77-2.25 328.47-2.25L328.47-2.25Q329.42-2.25 329.97-3.15L329.97-3.15 332.32-1.45Q331.72-0.55 330.7-0.03 329.67 0.5 328.52 0.5L328.52 0.5Q326.27 0.5 324.82-1.45L324.82-1.45 318.87-9.65Q317.47-11.55 316.1-12.55 314.72-13.55 312.12-13.8L312.12-13.8 312.12-16.6 316.47-16.6Q319.77-16.6 321.7-18.55 323.62-20.5 323.62-23.85L323.62-23.85Q323.62-27.2 321.77-29.3 319.92-31.4 317.02-31.4L317.02-31.4 309.02-31.4 309.02 0 306.02 0 306.02-31.4Z" opacity="1" transform="matrix(1,0,0,1,0,0)" fill="#010c80" class="wordmark-text-0" data-fill-palette-color="primary" id="text-0"></path></svg></g></svg></g></svg></g></svg></g></svg></g></svg></g></svg></g><g mask="url(#2e54231c-a676-461b-b325-cb499c71d561)"><g transform="matrix(5.420385219236834, 0, 0, 5.420385219236834, 1, 43.62221030056449)"><svg xmlns="http://www.w3.org/2000/svg" data-name="Layer 1" viewBox="13.199999809265137 34.41999816894531 72.60000610351562 29.51000213623047" x="0" y="0" height="29.51000213623047" width="72.60000610351562" class="icon-none" data-fill-palette-color="accent" id="none"><path d="M19.8 63.93H44.29l3.32-3.3h3.78l3.32 3.3H79.2V34.42H19.8Zm3.32-26.21H75.88V60.63H56.08L53.74 58.3l-1-1H46.24l-1 1-2.34 2.33H23.12Z" fill="#77d4fc" data-fill-palette-color="accent"></path><rect x="13.2" y="44.26" width="3.3" height="9.84" fill="#77d4fc" data-fill-palette-color="accent"></rect><rect x="82.5" y="44.26" width="3.3" height="9.84" fill="#77d4fc" data-fill-palette-color="accent"></rect></svg></g></g></svg></g><defs></defs></svg><rect width="395.52" height="247.2" fill="none" stroke="none" visibility="hidden"></rect></g></svg></g></svg>